# xmcd
#
# Track frame offsets:
#	150
#	16481
#	32377
#	49547
#	65760
#	81091
#	96562
#	121555
#	144302
#	155778
#	173248
#	193839
#
# Disc length: 2873 seconds
#
# Revision: 0
# Processed by: cddbd v1.5.2PL0 Copyright (c) Steve Scherf et al.
# Submitted via: dBpowerAMP V4.0
#
DISCID=9d0b370c
DTITLE=Josh Turner - Everything Is Fine
DYEAR=2007
DGENRE=Country
TTITLE0=Everything Is Fine
TTITLE1=Firecracker
TTITLE2=Another Try
TTITLE3=So Not My Baby
TTITLE4=Trailerhood
TTITLE5=Baby, I Go Crazy
TTITLE6=Nowhere Fast
TTITLE7=The Longer the Waiting (The Sweeter the Kiss)
TTITLE8=One Woman Man
TTITLE9=Soulmate
TTITLE10=The Way He Was Raised
TTITLE11=South Carolina Low Country
EXTD=
EXTT0=
EXTT1=
EXTT2=
EXTT3=
EXTT4=
EXTT5=
EXTT6=
EXTT7=
EXTT8=
EXTT9=
EXTT10=
EXTT11=
PLAYORDER=
